<svg width="24" height="24" viewBox="0 0 24 24" fill="none" xmlns="http://www.w3.org/2000/svg">
<path d="M24 12C24 5.37206 18.6279 0 12 0C5.37205 0 0 5.37206 0 12C0 17.9901 4.38575 22.9545 10.126 23.8553V15.4718H7.08164V12H10.126V9.35671C10.126 6.35178 11.9145 4.68822 14.6564 4.68822C15.9715 4.68822 17.3458 4.92493 17.3458 4.92493V7.87726H15.8334C14.3408 7.87726 13.8805 8.80438 13.8805 9.75123V12H17.2077L16.6751 15.4718H13.8805V23.8553C19.6142 22.9545 24 17.9901 24 12Z" fill="#434343"/>
<path d="M16.6676 15.4711L17.2002 11.9993H13.8731V9.75051C13.8731 8.80366 14.34 7.87654 15.826 7.87654H17.3383V4.92421C17.3383 4.92421 15.9641 4.6875 14.649 4.6875C11.9071 4.6875 10.1186 6.35106 10.1186 9.35599V11.9993H7.07422V15.4711H10.1186V23.8546C10.7301 23.9533 11.3548 23.9993 11.9926 23.9993C12.6304 23.9993 13.255 23.9467 13.8665 23.8546V15.4711H16.6676Z" fill="white"/>
</svg>
