<svg width="32" height="33" viewBox="0 0 32 33" fill="none" xmlns="http://www.w3.org/2000/svg">
<path d="M12.8027 28.2136V18.515H9.09068C8.89796 18.515 8.71313 18.4384 8.57685 18.3021C8.44057 18.1659 8.36401 17.981 8.36401 17.7883V13.9523C8.36401 13.7596 8.44057 13.5747 8.57685 13.4385C8.71313 13.3022 8.89796 13.2256 9.09068 13.2256H12.788V9.5123C12.6996 8.63171 12.805 7.74242 13.0969 6.90691C13.3888 6.0714 13.86 5.30993 14.4776 4.67598C15.0952 4.04203 15.844 3.55097 16.6716 3.2373C17.4992 2.92363 18.3854 2.79495 19.268 2.8603H22.3613C22.5559 2.85992 22.7428 2.93604 22.8817 3.07223C23.0207 3.20842 23.1005 3.39378 23.104 3.5883V6.8363C23.0998 7.03048 23.0197 7.2153 22.8809 7.35113C22.7421 7.48697 22.5556 7.56301 22.3613 7.56297H20.428C18.34 7.56297 17.9387 8.5523 17.9387 10.007V13.2243H22.9027C23.0058 13.2209 23.1085 13.24 23.2036 13.2803C23.2986 13.3206 23.3837 13.3811 23.453 13.4576C23.5223 13.5341 23.5741 13.6248 23.6048 13.7234C23.6355 13.8219 23.6443 13.926 23.6307 14.0283L23.1813 17.879C23.1588 18.0553 23.0725 18.2173 22.9385 18.3343C22.8046 18.4513 22.6325 18.5151 22.4547 18.5136H17.9693V28.2123C17.9719 28.3837 17.94 28.5538 17.8755 28.7126C17.811 28.8713 17.7154 29.0156 17.5941 29.1367C17.4729 29.2578 17.3286 29.3533 17.1697 29.4176C17.0108 29.4819 16.8407 29.5137 16.6693 29.511H14.0867C13.9167 29.5115 13.7483 29.4782 13.5913 29.4129C13.4343 29.3477 13.2919 29.2518 13.1723 29.1309C13.0528 29.01 12.9585 28.8665 12.8951 28.7088C12.8316 28.5511 12.8002 28.3836 12.8027 28.2136Z" fill="#205BF3"/>
</svg>
