<svg width="33" height="33" viewBox="0 0 33 33" fill="none" xmlns="http://www.w3.org/2000/svg">
<path d="M29.5741 13.5677H28.5001V13.5124H16.5001V18.8457H24.0354C22.9361 21.9504 19.9821 24.179 16.5001 24.179C12.0821 24.179 8.50008 20.597 8.50008 16.179C8.50008 11.761 12.0821 8.17904 16.5001 8.17904C18.5394 8.17904 20.3947 8.94837 21.8074 10.205L25.5787 6.4337C23.1974 4.21437 20.0121 2.8457 16.5001 2.8457C9.13675 2.8457 3.16675 8.8157 3.16675 16.179C3.16675 23.5424 9.13675 29.5124 16.5001 29.5124C23.8634 29.5124 29.8334 23.5424 29.8334 16.179C29.8334 15.285 29.7414 14.4124 29.5741 13.5677Z" fill="#FF5F00"/>
<path d="M4.7041 9.97304L9.08477 13.1857C10.2701 10.251 13.1408 8.17904 16.5001 8.17904C18.5394 8.17904 20.3948 8.94837 21.8074 10.205L25.5788 6.4337C23.1974 4.21437 20.0121 2.8457 16.5001 2.8457C11.3788 2.8457 6.93743 5.73704 4.7041 9.97304Z" fill="#FABB05"/>
<path d="M16.4999 29.5135C19.9439 29.5135 23.0732 28.1955 25.4392 26.0521L21.3125 22.5601C19.9289 23.6124 18.2382 24.1815 16.4999 24.1801C13.0319 24.1801 10.0872 21.9688 8.97788 18.8828L4.62988 22.2328C6.83655 26.5508 11.3179 29.5135 16.4999 29.5135Z" fill="#E94235"/>
<path d="M29.574 13.569H28.5V13.5137H16.5V18.847H24.0353C23.5095 20.3246 22.5622 21.6158 21.3107 22.561L21.3127 22.5597L25.4393 26.0517C25.1473 26.317 29.8333 22.847 29.8333 16.1803C29.8333 15.2863 29.7413 14.4137 29.574 13.569Z" fill="#205BF3"/>
</svg>
