<svg width="36" height="36" viewBox="0 0 36 36" fill="none" xmlns="http://www.w3.org/2000/svg">
<path d="M34.1239 3.57668H28.879V1.82838C28.879 1.3647 28.6948 0.920013 28.367 0.592143C28.0391 0.264273 27.5944 0.0800781 27.1307 0.0800781H9.64774C9.18407 0.0800781 8.73938 0.264273 8.41151 0.592143C8.08364 0.920013 7.89945 1.3647 7.89945 1.82838V3.57668H2.65455C2.19087 3.57668 1.74618 3.76087 1.41831 4.08874C1.09045 4.41661 0.90625 4.8613 0.90625 5.32497V10.5699C0.90625 12.4246 1.64303 14.2033 2.95451 15.5148C4.26599 16.8263 6.04473 17.5631 7.89945 17.5631H10.5918C12.1732 19.3274 14.3053 20.5043 16.6409 20.9023V24.5563H14.8926C13.5016 24.5563 12.1675 25.1088 11.1839 26.0925C10.2003 27.0761 9.64774 28.4101 9.64774 29.8012V33.2978C9.64774 33.7614 9.83194 34.2061 10.1598 34.534C10.4877 34.8619 10.9324 35.0461 11.396 35.0461H25.3824C25.8461 35.0461 26.2908 34.8619 26.6187 34.534C26.9465 34.2061 27.1307 33.7614 27.1307 33.2978V29.8012C27.1307 28.4101 26.5781 27.0761 25.5945 26.0925C24.6109 25.1088 23.2769 24.5563 21.8858 24.5563H20.1375V20.9023C22.4732 20.5043 24.6053 19.3274 26.1867 17.5631H28.879C30.7337 17.5631 32.5125 16.8263 33.824 15.5148C35.1354 14.2033 35.8722 12.4246 35.8722 10.5699V5.32497C35.8722 4.8613 35.688 4.41661 35.3602 4.08874C35.0323 3.76087 34.5876 3.57668 34.1239 3.57668V3.57668ZM7.89945 14.0665C6.97209 14.0665 6.08272 13.6981 5.42698 13.0423C4.77124 12.3866 4.40285 11.4972 4.40285 10.5699V7.07327H7.89945V10.5699C7.90329 11.7617 8.11022 12.9442 8.51135 14.0665H7.89945ZM21.8858 28.0529C22.3495 28.0529 22.7942 28.2371 23.1221 28.5649C23.4499 28.8928 23.6341 29.3375 23.6341 29.8012V31.5495H13.1443V29.8012C13.1443 29.3375 13.3285 28.8928 13.6564 28.5649C13.9843 28.2371 14.429 28.0529 14.8926 28.0529H21.8858ZM25.3824 10.5699C25.3824 12.4246 24.6457 14.2033 23.3342 15.5148C22.0227 16.8263 20.2439 17.5631 18.3892 17.5631C16.5345 17.5631 14.7558 16.8263 13.4443 15.5148C12.1328 14.2033 11.396 12.4246 11.396 10.5699V3.57668H25.3824V10.5699ZM32.3756 10.5699C32.3756 11.4972 32.0072 12.3866 31.3515 13.0423C30.6958 13.6981 29.8064 14.0665 28.879 14.0665H28.2671C28.6683 12.9442 28.8752 11.7617 28.879 10.5699V7.07327H32.3756V10.5699Z" fill="white"/>
</svg>
