<svg width="24" height="24" viewBox="0 0 24 24" fill="none" xmlns="http://www.w3.org/2000/svg">
<path d="M8 5.25C7.86614 5.25 7.75 5.13386 7.75 5V2C7.75 1.86614 7.86614 1.75 8 1.75C8.13386 1.75 8.25 1.86614 8.25 2V5C8.25 5.13386 8.13386 5.25 8 5.25Z" fill="#434343" stroke="#434343"/>
<path d="M16 5.25C15.8661 5.25 15.75 5.13386 15.75 5V2C15.75 1.86614 15.8661 1.75 16 1.75C16.1339 1.75 16.25 1.86614 16.25 2V5C16.25 5.13386 16.1339 5.25 16 5.25Z" fill="#434343" stroke="#434343"/>
<path d="M20.5 9.33984H3.5C3.36614 9.33984 3.25 9.2237 3.25 9.08984C3.25 8.95599 3.36614 8.83984 3.5 8.83984H20.5C20.6339 8.83984 20.75 8.95599 20.75 9.08984C20.75 9.2237 20.6339 9.33984 20.5 9.33984Z" fill="#434343" stroke="#434343"/>
<path d="M16 22.25H8C6.26991 22.25 4.97362 21.754 4.1098 20.8902C3.24598 20.0264 2.75 18.7301 2.75 17V8.5C2.75 6.76991 3.24598 5.47362 4.1098 4.6098C4.97362 3.74598 6.26991 3.25 8 3.25H16C17.7301 3.25 19.0264 3.74598 19.8902 4.6098C20.754 5.47362 21.25 6.76991 21.25 8.5V17C21.25 18.7301 20.754 20.0264 19.8902 20.8902C19.0264 21.754 17.7301 22.25 16 22.25ZM8 3.75C6.49651 3.75 5.28256 4.11533 4.44895 4.94895C3.61533 5.78256 3.25 6.99651 3.25 8.5V17C3.25 18.5035 3.61533 19.7174 4.44895 20.5511C5.28256 21.3847 6.49651 21.75 8 21.75H16C17.5035 21.75 18.7174 21.3847 19.5511 20.5511C20.3847 19.7174 20.75 18.5035 20.75 17V8.5C20.75 6.99651 20.3847 5.78256 19.5511 4.94895C18.7174 4.11533 17.5035 3.75 16 3.75H8Z" fill="#434343" stroke="#434343"/>
<path d="M8.5 14.5C8.37 14.5 8.24 14.47 8.12 14.42C8 14.37 7.89001 14.3 7.79001 14.21C7.70001 14.11 7.62999 14 7.57999 13.88C7.52999 13.76 7.5 13.63 7.5 13.5C7.5 13.24 7.61001 12.98 7.79001 12.79C7.89001 12.7 8 12.63 8.12 12.58C8.3 12.5 8.50001 12.48 8.70001 12.52C8.76001 12.53 8.82 12.55 8.88 12.58C8.94 12.6 9 12.63 9.06 12.67C9.11 12.71 9.15999 12.75 9.20999 12.79C9.24999 12.84 9.29999 12.89 9.32999 12.94C9.36999 13 9.40001 13.06 9.42001 13.12C9.45001 13.18 9.47001 13.24 9.48001 13.3C9.49001 13.37 9.5 13.43 9.5 13.5C9.5 13.76 9.38999 14.02 9.20999 14.21C9.01999 14.39 8.76 14.5 8.5 14.5Z" fill="#434343"/>
<path d="M12 14.4989C11.74 14.4989 11.48 14.3889 11.29 14.2089C11.25 14.1589 11.21 14.1089 11.17 14.0589C11.13 13.9989 11.1 13.9389 11.08 13.8789C11.05 13.8189 11.03 13.7589 11.02 13.6989C11.01 13.6289 11 13.5689 11 13.4989C11 13.3689 11.03 13.2389 11.08 13.1189C11.13 12.9989 11.2 12.8889 11.29 12.7889C11.57 12.5089 12.02 12.4189 12.38 12.5789C12.51 12.6289 12.61 12.6989 12.71 12.7889C12.89 12.9789 13 13.2389 13 13.4989C13 13.5689 12.99 13.6289 12.98 13.6989C12.97 13.7589 12.95 13.8189 12.92 13.8789C12.9 13.9389 12.87 13.9989 12.83 14.0589C12.79 14.1089 12.75 14.1589 12.71 14.2089C12.61 14.2989 12.51 14.3689 12.38 14.4189C12.26 14.4689 12.13 14.4989 12 14.4989Z" fill="#434343"/>
<path d="M8.5 17.9989C8.37 17.9989 8.24 17.9689 8.12 17.9189C8 17.8689 7.89001 17.7989 7.79001 17.7089C7.70001 17.6089 7.62999 17.5089 7.57999 17.3789C7.52999 17.2589 7.5 17.1289 7.5 16.9989C7.5 16.7389 7.61001 16.4789 7.79001 16.2889C7.89001 16.1989 8 16.1289 8.12 16.0789C8.49 15.9189 8.92999 16.0089 9.20999 16.2889C9.24999 16.3389 9.29999 16.3889 9.32999 16.4389C9.36999 16.4989 9.40001 16.5589 9.42001 16.6189C9.45001 16.6789 9.47001 16.7389 9.48001 16.8089C9.49001 16.8689 9.5 16.9389 9.5 16.9989C9.5 17.2589 9.38999 17.5189 9.20999 17.7089C9.01999 17.8889 8.76 17.9989 8.5 17.9989Z" fill="#434343"/>
</svg>
