<svg width="64" height="64" viewBox="0 0 64 64" fill="none" xmlns="http://www.w3.org/2000/svg">
<rect x="0.5" y="0.5" width="63" height="63" rx="31.5" fill="#E8E8E8"/>
<rect x="0.5" y="0.5" width="63" height="63" rx="31.5" stroke="#707070"/>
<path d="M27 26C25.7794 26.0037 25.1038 26.0329 24.5487 26.2659C23.7712 26.5922 23.138 27.195 22.7681 27.9611C22.4662 28.5864 22.4168 29.3875 22.318 30.9898L22.1631 33.5005C21.9174 37.4849 21.7945 39.4771 22.9637 40.7383C24.1328 41.9995 26.1025 41.9995 30.0419 41.9995H33.9581C37.8975 41.9995 39.8671 41.9995 41.0363 40.7383C42.2055 39.4771 42.0826 37.4849 41.8369 33.5005L41.682 30.9898C41.5832 29.3875 41.5338 28.5864 41.2319 27.9611C40.862 27.195 40.2288 26.5922 39.4513 26.2659C38.8962 26.0329 38.2206 26.0037 37 26" stroke="#434343" stroke-width="1.5" stroke-linecap="round"/>
<path d="M37 27L36.1142 24.7854C35.732 23.83 35.3994 22.7461 34.4166 22.2596C33.8924 22 33.2616 22 32 22C30.7384 22 30.1076 22 29.5834 22.2596C28.6006 22.7461 28.268 23.83 27.8858 24.7854L27 27" stroke="#434343" stroke-width="1.5" stroke-linecap="round" stroke-linejoin="round"/>
<path d="M35.5 34C35.5 35.933 33.933 37.5 32 37.5C30.067 37.5 28.5 35.933 28.5 34C28.5 32.067 30.067 30.5 32 30.5C33.933 30.5 35.5 32.067 35.5 34Z" stroke="#434343" stroke-width="1.5"/>
<path d="M32 26H32.009" stroke="#434343" stroke-width="2" stroke-linecap="round" stroke-linejoin="round"/>
</svg>
