<svg width="24" height="24" viewBox="0 0 24 24" fill="none" xmlns="http://www.w3.org/2000/svg">
<path d="M19.2964 12.415L19.6499 12.0614L19.2964 11.7079L17.2664 9.67785C17.1716 9.58311 17.1716 9.4197 17.2664 9.32496C17.3611 9.23022 17.5245 9.23022 17.6193 9.32496L17.9728 8.97141L17.6193 9.32496L20.1793 11.885C20.274 11.9797 20.274 12.1431 20.1793 12.2379L17.6193 14.7979C17.568 14.8491 17.5074 14.8714 17.4428 14.8714C17.3783 14.8714 17.3177 14.8491 17.2664 14.7979C17.1716 14.7031 17.1716 14.5397 17.2664 14.445L19.2964 12.415Z" fill="#434343" stroke="#434343"/>
<path d="M19.9278 12.3086H9.75781C9.62395 12.3086 9.50781 12.1925 9.50781 12.0586C9.50781 11.9247 9.62395 11.8086 9.75781 11.8086H19.9278C20.0617 11.8086 20.1778 11.9247 20.1778 12.0586C20.1778 12.1925 20.0617 12.3086 19.9278 12.3086Z" fill="#434343" stroke="#434343"/>
<path d="M11.7578 20.75C6.60781 20.75 3.00781 17.15 3.00781 12C3.00781 6.85 6.60781 3.25 11.7578 3.25C12.1678 3.25 12.5078 3.59 12.5078 4C12.5078 4.41 12.1678 4.75 11.7578 4.75C7.48781 4.75 4.50781 7.73 4.50781 12C4.50781 16.27 7.48781 19.25 11.7578 19.25C12.1678 19.25 12.5078 19.59 12.5078 20C12.5078 20.41 12.1678 20.75 11.7578 20.75Z" fill="#434343"/>
</svg>
