<svg width="31" height="24" viewBox="0 0 31 24" fill="none" xmlns="http://www.w3.org/2000/svg">
<g clip-path="url(#clip0_462_8339)">
<path d="M5.61331 23.8796V22.2911C5.61331 21.6821 5.24258 21.285 4.60712 21.285C4.28945 21.285 3.94525 21.3909 3.70694 21.7351C3.5217 21.4439 3.25697 21.285 2.85983 21.285C2.59498 21.285 2.33038 21.3644 2.11848 21.6557V21.338H1.5625V23.8796H2.11848V22.4764C2.11848 22.0264 2.35679 21.8145 2.72753 21.8145C3.09802 21.8145 3.28351 22.0528 3.28351 22.4764V23.8796H3.83949V22.4764C3.83949 22.0264 4.10409 21.8145 4.44829 21.8145C4.81902 21.8145 5.00427 22.0528 5.00427 22.4764V23.8796H5.61331ZM13.847 21.338H12.9469V20.5702H12.391V21.338H11.8879V21.8409H12.3908V23.0059C12.3908 23.5884 12.6292 23.9325 13.2646 23.9325C13.5029 23.9325 13.7675 23.8532 13.953 23.7473L13.7941 23.2706C13.6352 23.3765 13.45 23.4031 13.3176 23.4031C13.0528 23.4031 12.9469 23.2442 12.9469 22.9794V21.8409H13.847V21.338ZM18.5597 21.2849C18.242 21.2849 18.0302 21.4439 17.8978 21.6557V21.338H17.3418V23.8796H17.8978V22.4499C17.8978 22.0264 18.0831 21.7881 18.4273 21.7881C18.5332 21.7881 18.6656 21.8146 18.7715 21.841L18.9303 21.3116C18.8244 21.285 18.6656 21.285 18.5597 21.285M11.4378 21.5499C11.173 21.3645 10.8024 21.2852 10.4052 21.2852C9.7699 21.2852 9.34634 21.6028 9.34634 22.1059C9.34634 22.5295 9.66401 22.7677 10.22 22.8472L10.4847 22.8737C10.776 22.9266 10.9348 23.006 10.9348 23.1385C10.9348 23.3237 10.723 23.4561 10.3523 23.4561C9.98156 23.4561 9.69042 23.3237 9.50505 23.1914L9.24033 23.615C9.53159 23.8267 9.92873 23.9326 10.3258 23.9326C11.0671 23.9326 11.4908 23.5886 11.4908 23.1119C11.4908 22.6618 11.1466 22.4235 10.617 22.3442L10.3523 22.3176C10.114 22.2911 9.92873 22.2383 9.92873 22.0794C9.92873 21.8941 10.114 21.7882 10.4052 21.7882C10.723 21.7882 11.0407 21.9205 11.1995 22L11.4378 21.5499ZM26.2111 21.2852C25.8933 21.2852 25.6815 21.444 25.5491 21.6558V21.3381H24.9931V23.8797H25.5491V22.4501C25.5491 22.0265 25.7345 21.7882 26.0786 21.7882C26.1846 21.7882 26.317 21.8147 26.4229 21.8411L26.5817 21.3117C26.4758 21.2852 26.317 21.2852 26.2111 21.2852ZM19.1157 22.6089C19.1157 23.3767 19.6451 23.9326 20.4659 23.9326C20.8365 23.9326 21.1013 23.8533 21.366 23.6415L21.1013 23.1914C20.8895 23.3502 20.6777 23.4296 20.4394 23.4296C19.9893 23.4296 19.6716 23.1119 19.6716 22.6089C19.6716 22.1324 19.9893 21.8146 20.4394 21.7882C20.6777 21.7882 20.8895 21.8675 21.1013 22.0265L21.366 21.5764C21.1013 21.3645 20.8365 21.2852 20.4659 21.2852C19.6451 21.2852 19.1157 21.8411 19.1157 22.6089ZM24.2519 22.6089V21.3381H23.6959V21.6558C23.5106 21.4176 23.2458 21.2852 22.9016 21.2852C22.1868 21.2852 21.6308 21.8411 21.6308 22.6089C21.6308 23.3767 22.1868 23.9326 22.9016 23.9326C23.2723 23.9326 23.5371 23.8003 23.6959 23.562V23.8797H24.2519V22.6089ZM22.2132 22.6089C22.2132 22.1588 22.5045 21.7882 22.981 21.7882C23.4311 21.7882 23.7489 22.1324 23.7489 22.6089C23.7489 23.059 23.4311 23.4296 22.981 23.4296C22.5045 23.4031 22.2132 23.059 22.2132 22.6089ZM15.568 21.2852C14.8267 21.2852 14.2971 21.8146 14.2971 22.6089C14.2971 23.4032 14.8265 23.9326 15.5944 23.9326C15.965 23.9326 16.3358 23.8267 16.627 23.5886L16.3622 23.1914C16.1504 23.3502 15.8857 23.4561 15.621 23.4561C15.2768 23.4561 14.9326 23.2973 14.8531 22.8471H16.7329V22.6354C16.7594 21.8146 16.2829 21.2852 15.568 21.2852ZM15.5679 21.7617C15.912 21.7617 16.1504 21.9736 16.2032 22.3707H14.8795C14.9324 22.0265 15.1707 21.7617 15.5679 21.7617ZM29.3615 22.6089V20.332H28.8055V21.6558C28.6201 21.4176 28.3554 21.2852 28.0112 21.2852C27.2964 21.2852 26.7404 21.8411 26.7404 22.6089C26.7404 23.3767 27.2964 23.9326 28.0112 23.9326C28.382 23.9326 28.6467 23.8003 28.8055 23.562V23.8797H29.3615V22.6089ZM27.3229 22.6089C27.3229 22.1588 27.6141 21.7882 28.0907 21.7882C28.5408 21.7882 28.8585 22.1324 28.8585 22.6089C28.8585 23.059 28.5408 23.4296 28.0907 23.4296C27.6141 23.4031 27.3229 23.059 27.3229 22.6089ZM8.73717 22.6089V21.3381H8.18119V21.6558C7.99583 21.4176 7.7311 21.2852 7.3869 21.2852C6.67209 21.2852 6.11611 21.8411 6.11611 22.6089C6.11611 23.3767 6.67209 23.9326 7.3869 23.9326C7.75764 23.9326 8.02236 23.8003 8.18119 23.562V23.8797H8.73717V22.6089ZM6.67209 22.6089C6.67209 22.1588 6.96334 21.7882 7.43985 21.7882C7.88994 21.7882 8.20773 22.1324 8.20773 22.6089C8.20773 23.059 7.88994 23.4296 7.43985 23.4296C6.96334 23.4031 6.67209 23.059 6.67209 22.6089Z" fill="black"/>
<path d="M11.25 2.03906H19.5897V17.0241H11.25V2.03906Z" fill="#FF5F00"/>
<path d="M11.7816 9.53114C11.7816 6.48651 13.2112 3.78597 15.4086 2.03855C13.7937 0.767759 11.7552 0 9.53126 0C4.26247 0 0 4.26247 0 9.53114C0 14.7998 4.26247 19.0623 9.53114 19.0623C11.7551 19.0623 13.7936 18.2945 15.4086 17.0236C13.2112 15.3027 11.7816 12.5758 11.7816 9.53114Z" fill="#EB001B"/>
<path d="M30.8461 9.53114C30.8461 14.7997 26.5836 19.0623 21.315 19.0623C19.091 19.0623 17.0525 18.2945 15.4375 17.0236C17.6614 15.2763 19.0646 12.5758 19.0646 9.53114C19.0646 6.48651 17.6349 3.78597 15.4375 2.03855C17.0524 0.767759 19.091 0 21.315 0C26.5836 0 30.8461 4.28901 30.8461 9.53114Z" fill="#F79E1B"/>
</g>
<defs>
<clipPath id="clip0_462_8339">
<rect width="30.8744" height="24" fill="white"/>
</clipPath>
</defs>
</svg>
