<svg width="24" height="24" viewBox="0 0 24 24" fill="none" xmlns="http://www.w3.org/2000/svg">
<path d="M8.83271 21.6537L8.83273 21.6537L8.83 21.65L7.63001 20.05L7.09001 19.33H7.19C7.48284 19.33 7.84557 19.5059 8.03255 19.7434L9.2268 21.3457C9.22722 21.3462 9.22764 21.3468 9.22805 21.3474C9.39167 21.5697 9.64852 21.775 9.99001 21.775C10.3312 21.775 10.5879 21.5701 10.7515 21.348C10.7521 21.3472 10.7526 21.3464 10.7532 21.3457L11.95 19.75L11.9512 19.7484C12.146 19.4865 12.4566 19.33 12.79 19.33H13.19C14.521 19.33 15.6083 19.0509 16.3926 18.3931C17.1835 17.7297 17.584 16.7512 17.6874 15.5318C17.7196 15.2707 17.73 15.0324 17.73 14.79V10.79C17.73 9.33172 17.4045 8.16491 16.6098 7.3702C15.8151 6.57549 14.6483 6.25 13.19 6.25H6.79001C6.54638 6.25 6.31124 6.26055 6.08483 6.28204C4.84415 6.38937 3.85512 6.79156 3.18732 7.5857C2.52625 8.37184 2.25 9.45996 2.25 10.79V14.79C2.25 16.5166 2.50688 17.7283 3.31563 18.4657C4.10092 19.1817 5.27948 19.3261 6.73001 19.3299V19.8299C5.06961 19.8243 3.8633 19.5851 3.06014 18.9068C2.26704 18.2369 1.75 17.033 1.75 14.79V10.79C1.75 8.79349 2.35481 7.61359 3.14033 6.9034C3.94083 6.17966 5.001 5.87806 6.02382 5.78809L6.03294 5.78728L6.04203 5.78615C6.25206 5.75989 6.50841 5.75 6.79001 5.75H13.19C14.9154 5.75 16.1545 6.20657 16.964 7.01606C17.7734 7.82555 18.23 9.06456 18.23 10.79V14.79C18.23 15.0707 18.2201 15.3224 18.1854 15.5567L18.1831 15.5723L18.1818 15.5879C18.0968 16.5939 17.798 17.6462 17.0758 18.4429C16.3668 19.2251 15.1866 19.83 13.19 19.83H12.79H12.5431L12.393 20.0261L11.1529 21.6461L11.1529 21.6461L11.1473 21.6537C10.8427 22.0676 10.4167 22.28 9.98999 22.28C9.56329 22.28 9.13731 22.0676 8.83271 21.6537Z" fill="#434343" stroke="#434343"/>
<path d="M9.99219 13.6914C9.71159 13.6914 9.49219 13.4685 9.49219 13.1914C9.49219 12.9175 9.71833 12.6914 9.99219 12.6914C10.266 12.6914 10.4922 12.9175 10.4922 13.1914C10.4922 13.4685 10.2728 13.6914 9.99219 13.6914Z" fill="#434343" stroke="#434343"/>
<path d="M13.1875 14.1914C12.6275 14.1914 12.1875 13.7414 12.1875 13.1914C12.1875 12.6414 12.6375 12.1914 13.1875 12.1914C13.7375 12.1914 14.1875 12.6414 14.1875 13.1914C14.1875 13.7414 13.7375 14.1914 13.1875 14.1914Z" fill="#434343"/>
<path d="M6.79688 14.1914C6.23687 14.1914 5.79688 13.7414 5.79688 13.1914C5.79688 12.6414 6.24687 12.1914 6.79688 12.1914C7.34687 12.1914 7.79688 12.6414 7.79688 13.1914C7.79688 13.7414 7.34687 14.1914 6.79688 14.1914Z" fill="#434343"/>
<path d="M17.9396 16.29C17.7396 16.29 17.5396 16.21 17.3996 16.06C17.2396 15.9 17.1697 15.67 17.1997 15.45C17.2297 15.24 17.2396 15.02 17.2396 14.79V10.79C17.2396 8.00001 15.9897 6.75 13.1997 6.75H6.79963C6.56963 6.75 6.34966 6.76 6.13966 6.78C5.91966 6.81 5.68964 6.72999 5.52964 6.57999C5.36964 6.41999 5.27963 6.20001 5.29963 5.98001C5.47963 3.82001 6.58963 1.25 10.7996 1.25H17.1997C20.8197 1.25 22.7396 3.17001 22.7396 6.79001V10.79C22.7396 15 20.1697 16.1 18.0097 16.29C17.9797 16.29 17.9596 16.29 17.9396 16.29ZM6.91966 5.25H13.1896C16.8096 5.25 18.7297 7.17001 18.7297 10.79V14.66C20.4297 14.24 21.2297 12.99 21.2297 10.79V6.79001C21.2297 4.00001 19.9796 2.75 17.1896 2.75H10.7897C8.58965 2.75 7.34966 3.55 6.91966 5.25Z" fill="#434343"/>
</svg>
