<svg width="150" height="150" viewBox="0 0 150 150" fill="none" xmlns="http://www.w3.org/2000/svg">
<path d="M112.5 113.546C85.8106 121.493 52.4539 120.339 27.7003 110.085C20.425 107.07 14.4829 101.023 15.812 92.3101C16.6288 86.9557 20.6678 82.497 23.6601 78.1433C27.5795 72.3708 27.9689 66.0739 27.9696 59.3752C27.9696 50.7567 30.3032 41.3136 34.375 34.375" stroke="#205BF3" stroke-width="5" stroke-linecap="round" stroke-linejoin="round"/>
<path d="M46.875 21.8019C54.7128 15.9595 64.4394 12.5 74.9762 12.5C100.929 12.5 121.968 33.4866 121.968 59.375C121.968 66.0737 122.358 72.3706 126.274 78.1431C129.264 82.4969 133.299 86.9556 134.115 92.31C134.868 97.2475 134.014 99.9662 131.179 103.125" stroke="#205BF3" stroke-width="5" stroke-linecap="round" stroke-linejoin="round"/>
<path d="M137.5 137.5L12.5 12.5" stroke="#205BF3" stroke-width="5" stroke-linecap="round"/>
<path d="M50 118.75C52.8656 129.533 62.9719 137.5 75 137.5C87.0281 137.5 97.1344 129.533 100 118.75" stroke="#205BF3" stroke-width="5" stroke-linecap="round" stroke-linejoin="round"/>
</svg>
