<svg width="289" height="181" viewBox="0 0 289 181" fill="none" xmlns="http://www.w3.org/2000/svg">
<g filter="url(#filter0_d_462_5452)">
<rect x="4.5" y="19" width="267" height="154" rx="8" fill="#F9F9F9"/>
<path d="M102.5 81H62.5V114H102.5V81Z" fill="#707070"/>
<path d="M87.5 61L44.5 61.5L53 71L62.5 81H84H103L87.5 61Z" fill="#434343"/>
<path d="M70 104H77V95H70V104Z" fill="#434343"/>
<path d="M85.5 104V95H92.5V104H85.5Z" fill="#434343"/>
<path d="M28.5 114H62.5V81L44.5 61.5L28.5 81V114Z" fill="#707070"/>
<path d="M39.5 114H48V100L47 98H41L39.5 100V114Z" fill="#434343"/>
<rect x="123.5" y="50" width="106" height="10" rx="5" fill="#D7D7D7"/>
<rect x="189.5" y="142" width="26" height="8" rx="2" fill="#D7D7D7"/>
<rect x="222.5" y="142" width="26" height="8" rx="2" fill="#D7D7D7"/>
<path d="M123.5 102H229.5M123.5 114H203.844" stroke="#434343"/>
<path d="M133.796 74.5831L135.116 77.2447C135.296 77.6152 135.775 77.9705 136.18 78.0386L138.573 78.4393C140.103 78.6964 140.463 79.8154 139.36 80.9194L137.5 82.7945C137.185 83.1121 137.013 83.7245 137.11 84.1631L137.643 86.4844C138.063 88.3217 137.095 89.0325 135.483 88.0722L133.241 86.7339C132.836 86.4919 132.168 86.4919 131.756 86.7339L129.514 88.0722C127.909 89.0325 126.934 88.3141 127.354 86.4844L127.886 84.1631C127.984 83.7245 127.811 83.1121 127.496 82.7945L125.637 80.9194C124.542 79.8154 124.894 78.6964 126.424 78.4393L128.816 78.0386C129.214 77.9705 129.694 77.6152 129.874 77.2447L131.193 74.5831C131.913 73.139 133.083 73.139 133.796 74.5831Z" fill="#FABB05"/>
<path d="M155.796 74.5831L157.116 77.2447C157.296 77.6152 157.775 77.9705 158.18 78.0386L160.573 78.4393C162.103 78.6964 162.463 79.8154 161.36 80.9194L159.5 82.7945C159.185 83.1121 159.013 83.7245 159.11 84.1631L159.643 86.4844C160.063 88.3217 159.095 89.0325 157.483 88.0722L155.241 86.7339C154.836 86.4919 154.168 86.4919 153.756 86.7339L151.514 88.0722C149.909 89.0325 148.934 88.3141 149.354 86.4844L149.886 84.1631C149.984 83.7245 149.811 83.1121 149.496 82.7945L147.637 80.9194C146.542 79.8154 146.894 78.6964 148.424 78.4393L150.816 78.0386C151.214 77.9705 151.694 77.6152 151.874 77.2447L153.193 74.5831C153.913 73.139 155.083 73.139 155.796 74.5831Z" fill="#FABB05"/>
<path d="M177.796 74.5831L179.116 77.2447C179.296 77.6152 179.775 77.9705 180.18 78.0386L182.573 78.4393C184.103 78.6964 184.463 79.8154 183.36 80.9194L181.5 82.7945C181.185 83.1121 181.013 83.7245 181.11 84.1631L181.643 86.4844C182.063 88.3217 181.095 89.0325 179.483 88.0722L177.241 86.7339C176.836 86.4919 176.168 86.4919 175.756 86.7339L173.514 88.0722C171.909 89.0325 170.934 88.3141 171.354 86.4844L171.886 84.1631C171.984 83.7245 171.811 83.1121 171.496 82.7945L169.637 80.9194C168.542 79.8154 168.894 78.6964 170.424 78.4393L172.816 78.0386C173.214 77.9705 173.694 77.6152 173.874 77.2447L175.193 74.5831C175.913 73.139 177.083 73.139 177.796 74.5831Z" fill="#FABB05"/>
<path d="M199.796 74.5831L201.116 77.2447C201.296 77.6152 201.775 77.9705 202.18 78.0386L204.573 78.4393C206.103 78.6964 206.463 79.8154 205.36 80.9194L203.5 82.7945C203.185 83.1121 203.013 83.7245 203.11 84.1631L203.643 86.4844C204.063 88.3217 203.095 89.0325 201.483 88.0722L199.241 86.7339C198.836 86.4919 198.168 86.4919 197.756 86.7339L195.514 88.0722C193.909 89.0325 192.934 88.3141 193.354 86.4844L193.886 84.1631C193.984 83.7245 193.811 83.1121 193.496 82.7945L191.637 80.9194C190.542 79.8154 190.894 78.6964 192.424 78.4393L194.816 78.0386C195.214 77.9705 195.694 77.6152 195.874 77.2447L197.193 74.5831C197.913 73.139 199.083 73.139 199.796 74.5831Z" fill="#FABB05"/>
<path d="M221.796 74.5831L223.116 77.2447C223.296 77.6152 223.775 77.9705 224.18 78.0386L226.573 78.4393C228.103 78.6964 228.463 79.8154 227.36 80.9194L225.5 82.7945C225.185 83.1121 225.013 83.7245 225.11 84.1631L225.643 86.4844C226.063 88.3217 225.095 89.0325 223.483 88.0722L221.241 86.7339C220.836 86.4919 220.168 86.4919 219.756 86.7339L217.514 88.0722C215.909 89.0325 214.934 88.3141 215.354 86.4844L215.886 84.1631C215.984 83.7245 215.811 83.1121 215.496 82.7945L213.637 80.9194C212.542 79.8154 212.894 78.6964 214.424 78.4393L216.816 78.0386C217.214 77.9705 217.694 77.6152 217.874 77.2447L219.193 74.5831C219.913 73.139 221.083 73.139 221.796 74.5831Z" fill="#FABB05"/>
</g>
<rect x="248.5" width="38" height="38" rx="19" fill="#D7D7D7"/>
<path d="M273.097 12.9956C271.086 11.7619 269.33 12.2591 268.276 13.051C267.843 13.3757 267.627 13.5381 267.5 13.5381C267.373 13.5381 267.157 13.3757 266.724 13.051C265.67 12.2591 263.914 11.7619 261.903 12.9956C259.264 14.6147 258.666 19.9562 264.755 24.4626C265.914 25.3209 266.494 25.75 267.5 25.75C268.506 25.75 269.086 25.3209 270.245 24.4626C276.334 19.9562 275.736 14.6147 273.097 12.9956Z" fill="#205BF3"/>
<defs>
<filter id="filter0_d_462_5452" x="0.5" y="19" width="275" height="162" filterUnits="userSpaceOnUse" color-interpolation-filters="sRGB">
<feFlood flood-opacity="0" result="BackgroundImageFix"/>
<feColorMatrix in="SourceAlpha" type="matrix" values="0 0 0 0 0 0 0 0 0 0 0 0 0 0 0 0 0 0 127 0" result="hardAlpha"/>
<feOffset dy="4"/>
<feGaussianBlur stdDeviation="2"/>
<feComposite in2="hardAlpha" operator="out"/>
<feColorMatrix type="matrix" values="0 0 0 0 0 0 0 0 0 0 0 0 0 0 0 0 0 0 0.25 0"/>
<feBlend mode="normal" in2="BackgroundImageFix" result="effect1_dropShadow_462_5452"/>
<feBlend mode="normal" in="SourceGraphic" in2="effect1_dropShadow_462_5452" result="shape"/>
</filter>
</defs>
</svg>
