<svg width="22" height="24" viewBox="0 0 22 24" fill="none" xmlns="http://www.w3.org/2000/svg">
<g clip-path="url(#clip0_462_8346)">
<path d="M18.0212 1.86966C16.9139 0.607519 14.9122 0.0664063 12.3514 0.0664063H4.91938C4.666 0.0663672 4.42093 0.156741 4.22824 0.321271C4.03555 0.485802 3.90789 0.71369 3.86823 0.963943L0.773655 20.5905C0.712146 20.9775 1.01183 21.3279 1.40409 21.3279H5.99238L7.1447 14.019L7.10894 14.2479C7.19103 13.7312 7.63289 13.3502 8.15612 13.3502H10.3365C14.6197 13.3502 17.9736 11.6104 18.9533 6.57764C18.9824 6.42879 19.0076 6.28392 19.0294 6.14238C18.9057 6.0769 18.9057 6.0769 19.0294 6.14238C19.3211 4.28222 19.0274 3.01602 18.0212 1.86966Z" fill="#27346A"/>
<path d="M8.90036 5.47229C9.02576 5.41246 9.16298 5.38151 9.30192 5.38169H15.1285C15.8185 5.38169 16.462 5.42659 17.0501 5.52124C17.2147 5.5475 17.3784 5.57882 17.541 5.61517C17.7715 5.66604 17.9993 5.72829 18.2236 5.80169C18.5128 5.89825 18.782 6.0107 19.0295 6.14238C19.3211 4.28151 19.0274 3.01602 18.0212 1.86966C16.9133 0.607519 14.9122 0.0664062 12.3514 0.0664062H4.91874C4.39543 0.0664062 3.95024 0.447386 3.86823 0.963943L0.773656 20.5897C0.712146 20.9774 1.01183 21.3274 1.40346 21.3274H5.99239L8.38309 6.16686C8.40661 6.01785 8.46598 5.87678 8.55609 5.7558C8.64619 5.63481 8.76434 5.53751 8.90036 5.47229Z" fill="#27346A"/>
<path d="M18.9567 6.57588C17.977 11.6079 14.6232 13.3484 10.3399 13.3484H8.15887C7.63564 13.3484 7.19371 13.7295 7.11241 14.2461L5.67885 23.3339C5.62528 23.6726 5.88722 23.9795 6.22989 23.9795H10.0977C10.3193 23.9795 10.5335 23.9004 10.702 23.7564C10.8704 23.6125 10.982 23.4132 11.0166 23.1944L11.0543 22.9973L11.7833 18.3772L11.8302 18.1219C11.8649 17.903 11.9764 17.7037 12.1448 17.5598C12.3133 17.4159 12.5275 17.3368 12.7491 17.3367H13.3279C17.0747 17.3367 20.0085 15.8145 20.8658 11.4122C21.2237 9.57247 21.0385 8.03647 20.0919 6.95758C19.8048 6.6308 19.4482 6.36092 19.0328 6.14062C19.0103 6.28288 18.9859 6.42704 18.9567 6.57588Z" fill="#2790C3"/>
<path d="M18.0039 5.73088C17.8511 5.68628 17.6969 5.64679 17.5415 5.61247C17.3788 5.5767 17.2151 5.54559 17.0506 5.51917C16.4619 5.42389 15.8188 5.37891 15.1282 5.37891H9.30236C9.16333 5.37867 9.02605 5.40989 8.90079 5.47022C8.76459 5.53521 8.64629 5.63244 8.55614 5.75347C8.46599 5.8745 8.40672 6.01568 8.38344 6.16479L7.14514 14.0163L7.10938 14.2452C7.19083 13.7285 7.63269 13.3475 8.156 13.3475H10.337C14.6203 13.3475 17.9741 11.6077 18.9538 6.57493C18.9829 6.42609 19.0074 6.28185 19.0299 6.13968C18.7819 6.00882 18.5132 5.89546 18.2241 5.79962C18.1511 5.77543 18.0777 5.75251 18.0039 5.73088" fill="#1F264F"/>
</g>
<defs>
<clipPath id="clip0_462_8346">
<rect width="20.3444" height="24" fill="white" transform="translate(0.765625)"/>
</clipPath>
</defs>
</svg>
