<svg width="24" height="24" viewBox="0 0 24 24" fill="none" xmlns="http://www.w3.org/2000/svg">
<path d="M17 21.25H7C4.81222 21.25 3.55896 20.9094 2.8248 20.1752C2.09065 19.441 1.75 18.1878 1.75 16V8C1.75 5.81222 2.09065 4.55896 2.8248 3.8248C3.55896 3.09065 4.81222 2.75 7 2.75H17C19.1878 2.75 20.441 3.09065 21.1752 3.8248C21.9094 4.55896 22.25 5.81222 22.25 8V16C22.25 18.1878 21.9094 19.441 21.1752 20.1752C20.441 20.9094 19.1878 21.25 17 21.25ZM7 3.25C6.09618 3.25 5.34091 3.29224 4.72235 3.42281C4.09822 3.55456 3.57727 3.78357 3.17859 4.18306C2.77996 4.58249 2.55213 5.10372 2.42129 5.72714C2.2916 6.34503 2.25 7.09888 2.25 8V16C2.25 16.9011 2.2916 17.655 2.42129 18.2729C2.55213 18.8963 2.77996 19.4175 3.17859 19.8169C3.57727 20.2164 4.09822 20.4454 4.72235 20.5772C5.34091 20.7078 6.09618 20.75 7 20.75H17C17.9038 20.75 18.6591 20.7078 19.2776 20.5772C19.9018 20.4454 20.4227 20.2164 20.8214 19.8169C21.22 19.4175 21.4479 18.8963 21.5787 18.2729C21.7084 17.655 21.75 16.9011 21.75 16V8C21.75 7.09888 21.7084 6.34503 21.5787 5.72714C21.4479 5.10372 21.22 4.58249 20.8214 4.18306C20.4227 3.78357 19.9018 3.55456 19.2776 3.42281C18.6591 3.29224 17.9038 3.25 17 3.25H7Z" fill="#434343" stroke="#434343"/>
<path d="M19 8.25H14C13.8661 8.25 13.75 8.13386 13.75 8C13.75 7.86614 13.8661 7.75 14 7.75H19C19.1339 7.75 19.25 7.86614 19.25 8C19.25 8.13386 19.1339 8.25 19 8.25Z" fill="#434343" stroke="#434343"/>
<path d="M19 12.25H15C14.8661 12.25 14.75 12.1339 14.75 12C14.75 11.8661 14.8661 11.75 15 11.75H19C19.1339 11.75 19.25 11.8661 19.25 12C19.25 12.1339 19.1339 12.25 19 12.25Z" fill="#434343" stroke="#434343"/>
<path d="M19 16.25H17C16.8661 16.25 16.75 16.1339 16.75 16C16.75 15.8661 16.8661 15.75 17 15.75H19C19.1339 15.75 19.25 15.8661 19.25 16C19.25 16.1339 19.1339 16.25 19 16.25Z" fill="#434343" stroke="#434343"/>
<path d="M8.4975 11.5419C7.36364 11.5419 6.4375 10.6157 6.4375 9.48187C6.4375 8.34802 7.36364 7.42188 8.4975 7.42188C9.63136 7.42188 10.5575 8.34802 10.5575 9.48187C10.5575 10.6157 9.63136 11.5419 8.4975 11.5419ZM8.4975 7.92188C7.64136 7.92188 6.9375 8.62573 6.9375 9.48187C6.9375 10.338 7.64136 11.0419 8.4975 11.0419C9.35364 11.0419 10.0575 10.338 10.0575 9.48187C10.0575 8.62573 9.35364 7.92188 8.4975 7.92188Z" fill="#434343" stroke="#434343"/>
<path d="M9.22363 13.8538L9.22363 13.8538L9.22127 13.8536C8.73245 13.8111 8.24346 13.8111 7.75464 13.8536L7.75464 13.8536L7.75227 13.8538C6.42443 13.9756 5.36456 15.0229 5.23048 16.3515L5.23048 16.3515L5.23032 16.3532C5.21639 16.4959 5.08761 16.5899 4.96848 16.5754L4.9685 16.5753L4.9565 16.5741C4.82546 16.5613 4.72224 16.4397 4.73555 16.3007C4.8922 14.7377 6.13371 13.4984 7.70198 13.3598L7.70322 13.3597C8.22281 13.3124 8.7522 13.3124 9.2718 13.3596C10.8342 13.5076 12.0839 14.7501 12.2404 16.3007C12.2537 16.4397 12.1504 16.5613 12.0194 16.5741L11.9647 16.5794C11.8527 16.5639 11.7577 16.4716 11.7453 16.3507C11.6111 15.0343 10.5531 13.9758 9.22363 13.8538Z" fill="#434343" stroke="#434343"/>
</svg>
