<svg width="24" height="24" viewBox="0 0 24 24" fill="none" xmlns="http://www.w3.org/2000/svg">
<path d="M11.4393 22.1725L11.4394 22.1723L11.4266 22.1688C6.44647 20.7966 2.84375 16.1386 2.84375 11.1108V6.72076C2.84375 5.80415 3.53068 4.77646 4.38405 4.42318C4.3843 4.42308 4.38455 4.42298 4.3848 4.42287L9.95221 2.14391C9.95237 2.14384 9.95254 2.14378 9.9527 2.14371C11.2822 1.6029 12.7362 1.60346 14.0542 2.14345L14.0543 2.14351L19.6227 4.42287C19.6229 4.42296 19.6231 4.42306 19.6234 4.42315C20.4768 4.77639 21.1638 5.80412 21.1638 6.72076V11.1108C21.1638 16.1278 17.5517 20.7869 12.5798 22.1691L12.5798 22.1689L12.5682 22.1725C12.3926 22.2259 12.2027 22.2508 12.0038 22.2508C11.8048 22.2508 11.6149 22.2259 11.4393 22.1725ZM10.1451 2.61776L10.1443 2.61807L4.57435 4.89804L4.57435 4.89803L4.57146 4.89924C4.21553 5.04754 3.91589 5.33925 3.709 5.64652C3.50231 5.95352 3.34375 6.34214 3.34375 6.73077V11.1208C3.34375 15.943 6.8003 20.3722 11.5556 21.6914C11.846 21.7773 12.1615 21.7773 12.4519 21.6914C17.2072 20.3722 20.6638 15.943 20.6638 11.1208V6.73077C20.6638 6.34214 20.5052 5.95352 20.2985 5.64652C20.0916 5.33925 19.792 5.04754 19.4361 4.89923L19.4332 4.89804L13.8632 2.61807L13.8624 2.61776C13.2634 2.37371 12.6394 2.25079 12.0038 2.25079C11.3681 2.25079 10.7441 2.37371 10.1451 2.61776Z" fill="#434343" stroke="#434343"/>
<path d="M12 12.75C10.7561 12.75 9.75 11.7439 9.75 10.5C9.75 9.25614 10.7561 8.25 12 8.25C13.2439 8.25 14.25 9.25614 14.25 10.5C14.25 11.7439 13.2439 12.75 12 12.75ZM12 8.75C11.0339 8.75 10.25 9.53386 10.25 10.5C10.25 11.4661 11.0339 12.25 12 12.25C12.9661 12.25 13.75 11.4661 13.75 10.5C13.75 9.53386 12.9661 8.75 12 8.75Z" fill="#434343" stroke="#434343"/>
<path d="M12 15.75C11.8661 15.75 11.75 15.6339 11.75 15.5V12.5C11.75 12.3661 11.8661 12.25 12 12.25C12.1339 12.25 12.25 12.3661 12.25 12.5V15.5C12.25 15.6339 12.1339 15.75 12 15.75Z" fill="#434343" stroke="#434343"/>
</svg>
