<svg width="24" height="24" viewBox="0 0 24 24" fill="none" xmlns="http://www.w3.org/2000/svg">
<path d="M12 12.25C9.10614 12.25 6.75 9.89386 6.75 7C6.75 4.10614 9.10614 1.75 12 1.75C14.8939 1.75 17.25 4.10614 17.25 7C17.25 9.89386 14.8939 12.25 12 12.25ZM12 2.25C9.38386 2.25 7.25 4.38386 7.25 7C7.25 9.61614 9.38386 11.75 12 11.75C14.6161 11.75 16.75 9.61614 16.75 7C16.75 4.38386 14.6161 2.25 12 2.25Z" fill="#434343" stroke="#434343"/>
<path d="M20.5862 22.25C20.4524 22.25 20.3362 22.1339 20.3362 22C20.3362 18.1738 16.4804 15.25 11.9962 15.25C7.51211 15.25 3.65625 18.1738 3.65625 22C3.65625 22.1339 3.54011 22.25 3.40625 22.25C3.27239 22.25 3.15625 22.1339 3.15625 22C3.15625 18.0893 7.03114 14.75 11.9962 14.75C16.9613 14.75 20.8362 18.0893 20.8362 22C20.8362 22.1339 20.7201 22.25 20.5862 22.25Z" fill="#434343" stroke="#434343"/>
</svg>
