<svg width="18" height="37" viewBox="0 0 18 37" fill="none" xmlns="http://www.w3.org/2000/svg">
<path d="M8.44708 24.0278C-1.11337 13.5097 -3.11894 25.6643 8.39961 28.2565C8.72296 28.3293 9.05332 28.3505 9.37927 28.3233C9.46457 28.012 9.53207 27.7084 9.58387 27.4162C9.80251 26.1828 9.28963 24.9547 8.44708 24.0278Z" fill="#205BF3"/>
<path d="M8.21127 1C14.6959 6.67402 23.9873 19.7594 10.8698 27.8321C10.1337 28.2851 9.24282 28.4463 8.39961 28.2565C-3.11894 25.6643 -1.11337 13.5097 8.44708 24.0278C9.28963 24.9547 9.80251 26.1828 9.58387 27.4162C9.06568 30.3395 6.97645 34.3986 1.21133 36" stroke="#205BF3"/>
</svg>
