<svg width="55" height="24" viewBox="0 0 55 24" fill="none" xmlns="http://www.w3.org/2000/svg">
<g clip-path="url(#clip0_462_8344)">
<path d="M21.3375 0.307368L14.2813 17.1406H9.67795L6.20553 3.70611C5.995 2.88063 5.81205 2.57684 5.17142 2.22779C4.12426 1.65895 2.395 1.12695 0.875 0.796L0.977526 0.307368H8.3889C9.33205 0.307368 10.1813 0.935368 10.3973 2.02274L12.2321 11.7644L16.7617 0.307368H21.3375ZM27.5607 0.307368L23.9601 17.1406H19.6047L23.2057 0.307368H27.5607ZM39.3746 11.6446C39.3927 7.20274 33.2327 6.95621 33.2729 4.97158C33.2876 4.36821 33.8624 3.72589 35.1205 3.56168C35.7436 3.48105 37.4653 3.41684 39.4154 4.31537L40.1784 0.743579C39.1306 0.364632 37.7822 0 36.1049 0C31.7996 0 28.7712 2.28674 28.747 5.56379C28.7188 7.98779 30.9102 9.33874 32.5582 10.1461C34.2556 10.9705 34.8249 11.5004 34.8171 12.2373C34.8049 13.3667 33.4613 13.8667 32.2123 13.8853C30.0219 13.92 28.7523 13.2933 27.7394 12.8215L26.9489 16.5116C27.9678 16.9785 29.8457 17.3842 31.7908 17.4048C36.3676 17.4048 39.3611 15.1442 39.3746 11.6446ZM50.743 17.1408H54.7697L51.2518 0.307368H47.5367C46.6988 0.307368 45.9946 0.793684 45.6822 1.54126L39.1474 17.1406H43.7207L44.6278 14.6261H50.2152L50.743 17.1408ZM45.882 11.1768L48.175 4.85537L49.4923 11.1768H45.882ZM33.1346 21.7743H31.3649V23.4213H33.3443V23.9164H30.7687V19.3474H33.2428V19.8425H31.3649V21.2861H33.1344L33.1346 21.7743ZM34.2586 19.1036H34.8548V23.9162H34.2586V19.1036ZM36.3592 22.3842C36.3727 23.1912 36.8813 23.5232 37.4843 23.5232C37.9116 23.5232 38.1758 23.4486 38.3931 23.3539L38.5013 23.7811C38.2912 23.8758 37.9253 23.9909 37.403 23.9909C36.3933 23.9909 35.7902 23.32 35.7902 22.3301C35.7902 21.3406 36.3727 20.5676 37.3287 20.5676C38.4066 20.5676 38.6845 21.5034 38.6845 22.1065C38.6845 22.2284 38.6775 22.3164 38.6638 22.3844L36.3592 22.3842ZM38.1081 21.9573C38.115 21.5846 37.9523 20.9947 37.2811 20.9947C36.671 20.9947 36.4133 21.5438 36.3657 21.9573H38.1081ZM41.9299 23.8011C41.7742 23.8758 41.4283 23.9912 40.9878 23.9912C39.9982 23.9912 39.3542 23.32 39.3542 22.3166C39.3542 21.3065 40.0453 20.5678 41.1165 20.5678C41.4689 20.5678 41.7807 20.6556 41.9434 20.744L41.8083 21.1981C41.6653 21.1236 41.4417 21.0419 41.1165 21.0419C40.3638 21.0419 39.9575 21.6046 39.9575 22.2829C39.9575 23.0419 40.4455 23.5097 41.0963 23.5097C41.4352 23.5097 41.6588 23.4284 41.8283 23.3539L41.9299 23.8011ZM43.6032 19.8491V20.6354H44.4571V21.0893H43.6032V22.8587C43.6032 23.2659 43.7186 23.496 44.0506 23.496C44.2131 23.496 44.3083 23.4827 44.3965 23.4552L44.4236 23.9099C44.3083 23.9503 44.1253 23.9909 43.8948 23.9909C43.6167 23.9909 43.3929 23.896 43.2508 23.7404C43.0881 23.5571 43.0203 23.2659 43.0203 22.8794V21.0893H42.5116V20.6354H43.0203V20.0253L43.6032 19.8491ZM45.2902 21.6592C45.2902 21.2726 45.283 20.9406 45.263 20.6354H45.7851L45.8125 21.2859H45.8323C45.9817 20.8457 46.3474 20.5676 46.7472 20.5676C46.8085 20.5676 46.8561 20.5745 46.9104 20.5811V21.144C46.8493 21.1301 46.7885 21.1301 46.7066 21.1301C46.2868 21.1301 45.9881 21.4419 45.907 21.8897C45.893 21.9816 45.8862 22.0746 45.8866 22.1676V23.9166H45.2902V21.6592ZM50.5767 22.2486C50.5767 23.4621 49.7291 23.9909 48.943 23.9909C48.0615 23.9909 47.3704 23.34 47.3704 22.3032C47.3704 21.2116 48.0956 20.5678 48.9973 20.5678C49.9394 20.5678 50.5767 21.2518 50.5767 22.2486ZM47.9803 22.2829C47.9803 23.0015 48.387 23.544 48.9699 23.544C49.5396 23.544 49.9664 23.008 49.9664 22.2693C49.9664 21.7135 49.6885 21.0149 48.9834 21.0149C48.2855 21.0149 47.9803 21.6661 47.9803 22.2829ZM51.4908 21.5236C51.4908 21.1781 51.4836 20.9067 51.4634 20.6358H51.9923L52.0262 21.1781H52.0396C52.2024 20.8728 52.5819 20.568 53.1243 20.568C53.5782 20.568 54.2834 20.8392 54.2834 21.964V23.9166H53.687V22.0253C53.687 21.4968 53.4904 21.0558 52.9278 21.0558C52.5413 21.0558 52.2361 21.3339 52.1281 21.6659C52.1007 21.7406 52.0872 21.8421 52.0872 21.944V23.9166H51.4908V21.5236Z" fill="#1A1F71"/>
</g>
<defs>
<clipPath id="clip0_462_8344">
<rect width="53.8947" height="24" fill="white" transform="translate(0.875)"/>
</clipPath>
</defs>
</svg>
